<svg width="207" height="63" viewBox="0 0 207 63" fill="none" xmlns="http://www.w3.org/2000/svg">
<path d="M185.123 25.0147C185.123 26.25 184.815 27.7941 184.198 29.3382C183.582 30.8823 182.658 32.1176 181.733 33.6617C180.809 35.2058 179.576 36.4411 178.344 37.3676C177.111 38.6029 176.187 39.5294 174.954 40.7647L172.797 42.3088V42.6176L175.262 42H181.733L180.809 46.0147H166.635L167.251 43.5441C167.867 42.9264 168.792 42 169.716 41.3823C170.64 40.4558 171.565 39.5294 172.489 38.6029C173.414 37.6764 174.646 36.4411 175.571 35.5147C176.495 34.5882 177.419 33.3529 178.036 32.4264C178.652 31.5 179.268 30.2647 179.884 29.3382C180.501 28.4117 180.501 27.4853 180.501 26.5588C180.501 25.6323 180.193 25.0147 179.884 24.7058C179.576 24.0882 178.652 23.7794 177.419 23.7794C176.803 23.7794 175.879 24.0882 174.954 24.397C174.03 24.7058 173.414 25.3235 172.489 25.9411L171.257 22.5441C172.489 21.6176 173.722 21 174.954 20.6911C176.187 20.3823 177.419 20.0735 179.268 20.0735C181.117 20.0735 182.349 20.6911 183.582 21.6176C184.815 21.9264 185.123 23.4705 185.123 25.0147Z" fill="#A6ABBD"/>
<path d="M205.151 38.6026H201.145L199.605 46.0144H195.291L196.832 38.6026H186.355L186.971 35.8232L201.454 19.7644H205.151L202.07 34.8968H206.076L205.151 38.6026ZM198.988 29.0291L199.913 25.9409L198.064 28.7203L193.442 33.6615L191.285 35.2056L193.442 34.8968H197.448L198.988 29.0291Z" fill="#A6ABBD"/>
<path d="M207 11.7353L205.767 12.0441L202.07 12.9706L191.593 15.1324L193.442 8.95588C178.96 4.94118 163.862 13.2794 159.548 27.7941C154.926 42.3088 162.629 57.75 176.803 63C161.705 57.75 153.077 41.3824 158.007 25.6324C162.937 10.1912 179.268 1.23529 194.675 5.86765L196.215 0L207 11.7353Z" fill="#00C368"/>
<path d="M7.01929 38.8849L5.56909 47.151H0.8479L4.92456 23.6901L13.1423 23.7062C15.6775 23.7062 17.6702 24.4098 19.1204 25.817C20.5706 27.2242 21.2043 29.0612 21.0217 31.3278C20.8499 33.6266 19.8884 35.4635 18.1375 36.8385C16.3972 38.2135 14.1736 38.901 11.4666 38.901L7.01929 38.8849ZM7.67993 34.9694L11.6116 35.0016C12.8792 35.0016 13.9319 34.674 14.7698 34.0187C15.6077 33.3634 16.1072 32.4772 16.2683 31.36C16.4294 30.2428 16.2468 29.3512 15.7205 28.6852C15.2048 28.0192 14.4368 27.6647 13.4163 27.6217L8.96899 27.6056L7.67993 34.9694ZM31.7209 38.5626H27.886L26.3875 47.151H21.6663L25.7429 23.6901L33.5095 23.7062C36.1091 23.7062 38.1072 24.3185 39.5037 25.5431C40.9109 26.7677 41.5339 28.4703 41.3728 30.651C41.1472 33.8737 39.4285 36.1134 36.2166 37.3702L39.5198 46.8932V47.151H34.4924L31.7209 38.5626ZM28.5627 34.6471L32.0754 34.6793C33.3215 34.6578 34.3474 34.3248 35.1531 33.6803C35.9695 33.025 36.4583 32.1388 36.6194 31.0216C36.7698 29.9796 36.6033 29.1632 36.1199 28.5724C35.6365 27.9816 34.8684 27.6647 33.8157 27.6217L29.7874 27.6056L28.5627 34.6471ZM51.6853 47.4733C50.1277 47.441 48.7527 47.0758 47.5603 46.3776C46.3787 45.6686 45.4387 44.6534 44.7405 43.3322C44.053 42.0001 43.6555 40.4747 43.5481 38.756C43.4299 36.9943 43.6179 35.1144 44.1121 33.1163C44.6062 31.1183 45.4011 29.3619 46.4968 27.8473C47.5925 26.3326 48.8762 25.1993 50.3479 24.4474C51.8303 23.6954 53.4309 23.3356 55.1497 23.3678C56.7288 23.4 58.1091 23.776 59.2908 24.4957C60.4724 25.2047 61.4016 26.2306 62.0784 27.5734C62.7551 28.9054 63.1418 30.42 63.2385 32.1173C63.3459 34.0079 63.1418 35.9523 62.6262 37.9503C62.1106 39.9484 61.3103 41.6779 60.2253 43.1388C59.1404 44.5997 57.8674 45.6954 56.4065 46.4259C54.9563 47.1564 53.3826 47.5055 51.6853 47.4733ZM58.3723 34.776L58.5012 33.2452C58.6086 31.3331 58.3508 29.8829 57.7278 28.8947C57.1155 27.9064 56.1809 27.3907 54.9241 27.3478C52.9583 27.2833 51.3953 28.1534 50.2351 29.9581C49.0857 31.7628 48.4358 34.2872 48.2854 37.5314C48.178 39.4327 48.4304 40.899 49.0427 41.9303C49.655 42.9508 50.6057 43.4825 51.8948 43.5255C53.5813 43.6007 54.9778 42.9454 56.0842 41.5597C57.1907 40.1632 57.9158 38.192 58.2595 35.6461L58.3723 34.776ZM64.5276 47.151L68.6042 23.6901L75.3396 23.7062C76.9187 23.7384 78.3367 24.0983 79.5935 24.7858C80.8611 25.4625 81.887 26.4401 82.6711 27.7184C83.4553 28.9967 83.928 30.4362 84.0891 32.0367C84.175 32.9713 84.1643 33.9274 84.0569 34.9049L83.9441 35.7589C83.4714 39.1964 82.1179 41.9572 79.8835 44.0411C77.6599 46.1144 74.9583 47.151 71.7786 47.151H64.5276ZM72.6487 27.6056L69.9255 43.2677L71.8914 43.2838C74.0613 43.2838 75.8015 42.4889 77.1121 40.899C78.4333 39.3092 79.1907 36.9083 79.384 33.6964L79.4163 33.1808C79.4485 31.4083 79.1101 30.0494 78.4011 29.1041C77.6921 28.1588 76.634 27.6647 75.2268 27.6217L72.6487 27.6056ZM106.906 23.6901L104.263 39.1588C103.898 41.7477 102.823 43.7941 101.04 45.298C99.2571 46.8019 97.0442 47.5323 94.4016 47.4894C92.7473 47.4572 91.3079 47.0973 90.0833 46.4098C88.8694 45.7115 87.9724 44.734 87.3923 43.4772C86.8123 42.2096 86.6135 40.7755 86.7961 39.1749L89.4226 23.6901H94.1438L91.5173 39.191C91.4421 39.7926 91.4368 40.3566 91.5012 40.8829C91.7161 42.6232 92.7527 43.5255 94.6111 43.59C95.9431 43.6329 97.0334 43.2677 97.8821 42.4943C98.7307 41.7208 99.2786 40.6144 99.5256 39.1749L102.168 23.6901H106.906ZM125.871 39.3199C125.688 40.942 125.135 42.3815 124.211 43.6383C123.287 44.8844 122.084 45.8458 120.602 46.5226C119.119 47.1886 117.519 47.5055 115.8 47.4733C114.253 47.441 112.905 47.0865 111.756 46.4098C110.606 45.7223 109.698 44.734 109.032 43.4449C108.377 42.1451 108.007 40.652 107.921 38.9655C107.845 37.6442 107.98 36.0006 108.323 34.0348C108.678 32.069 109.301 30.3234 110.193 28.798C111.095 27.2726 112.164 26.0641 113.399 25.1725C115.139 23.9264 117.127 23.3248 119.361 23.3678C121.789 23.4108 123.712 24.1627 125.13 25.6237C126.558 27.0739 127.343 29.0934 127.482 31.6823L122.777 31.6661C122.777 30.1837 122.482 29.0988 121.891 28.4113C121.3 27.7238 120.382 27.3585 119.135 27.3156C117.524 27.2618 116.198 27.8365 115.156 29.0397C114.124 30.2428 113.431 31.9991 113.077 34.3087C112.733 36.5538 112.583 38.235 112.626 39.3522C112.679 40.7701 112.996 41.8175 113.576 42.4943C114.156 43.1603 114.968 43.5094 116.01 43.5416C117.449 43.5953 118.598 43.257 119.458 42.5265C120.328 41.7853 120.903 40.7272 121.182 39.3522L125.871 39.3199ZM147.914 27.6056H140.953L137.569 47.151H132.848L136.232 27.6056H129.351L130.044 23.6901H148.607L147.914 27.6056Z" fill="#A6ABBD"/>
</svg>
