<svg xmlns="http://www.w3.org/2000/svg"><symbol id="benefit_base" viewBox="0 0 74 86"><circle cx="31.69" cy="73.4106" r="7" transform="rotate(-15 31.69 73.4106)"  stroke-width="2"/>
<rect x="30.9965" y="32.1854" width="30" height="30" transform="rotate(-15 30.9965 32.1854)" stroke-width="2"/>
<rect x="43.1053" y="31.0114" width="6" height="8" transform="rotate(-15 43.1053 31.0114)" stroke="#00C368" stroke-width="2"/>
</symbol><symbol id="benefit_control" viewBox="0 0 97 87"><path d="M15.1607 61.5422C9.30285 55.6844 9.30284 46.1869 15.1607 40.329L40.7138 14.7759C46.5717 8.91804 56.0692 8.91804 61.927 14.7759L66.3751 19.2239C72.7391 25.588 72.1152 36.1227 65.2298 42.0046C61.3795 45.2936 57.381 48.849 54.1861 52.0091C50.446 55.7086 46.2117 60.4447 42.3971 64.8965C36.5133 71.7631 25.9905 72.372 19.6345 66.016L15.1607 61.5422Z" stroke-width="2"/>
<path d="M13.1361 59.2873C7.76622 53.9173 7.26444 45.4045 12.1268 39.6211C16.509 34.4089 21.7879 28.3753 26.3021 23.9101C30.2798 19.9757 35.5538 15.3896 40.2347 11.4712C46.0198 6.62843 54.5204 7.13888 59.8823 12.5008L60.2826 12.9011C66.6467 19.2651 66.0228 29.7998 59.1373 35.6817C55.287 38.9708 51.2885 42.5261 48.0937 45.6863C44.3535 49.3857 40.1192 54.1218 36.3046 58.5736C30.4209 65.4402 19.898 66.0491 13.542 59.6931L13.1361 59.2873Z" stroke-width="2"/>
<rect x="34.1522" y="26.7675" width="15.6653" height="15.6653" rx="7.83265" transform="rotate(-45 34.1522 26.7675)" stroke-width="2"/>
<rect x="69.5" y="63.9998" width="26" height="22" rx="1" stroke-width="2"/>
<path d="M71.5 40.9994C78.5 42.9994 82.5 45.9998 82.5002 56.999" stroke-width="2"/>
</symbol><symbol id="benefit_form" viewBox="0 0 57 72"><rect x="1.5" y="1" width="54" height="70" rx="3" stroke-width="2"/>
<path d="M9.5 1H47.5V6C47.5 7.65685 46.1569 9 44.5 9H12.5C10.8431 9 9.5 7.65685 9.5 6V1Z" stroke-width="2"/>
<path d="M12.5 54H44.5C46.1569 54 47.5 55.3431 47.5 57V59C47.5 60.6569 46.1569 62 44.5 62H12.5C10.8431 62 9.5 60.6569 9.5 59V57C9.5 55.3431 10.8431 54 12.5 54Z" stroke="#00C368" stroke-width="2"/>
</symbol><symbol id="benefit_support" viewBox="0 0 64 73"><path d="M60 39.5V25C60 11.7452 49.2548 1 36 1H28C14.7452 1 4 11.7452 4 25V39.5"  stroke-width="2"/>
<path d="M9 31C9 18.2975 19.2975 8 32 8C44.7025 8 55 18.2975 55 31V39C55 51.7025 44.7025 62 32 62C19.2975 62 9 51.7025 9 39V31Z"  stroke-width="2"/>
<path d="M29.5 70.5L36 70.5C49.2548 70.5 60 59.7548 60 46.5L60 36"  stroke-width="2"/>
<rect x="1" y="32" width="6" height="14" rx="3"  stroke-width="2"/>
<rect x="57" y="32" width="6" height="14" rx="3"  stroke-width="2"/>
</symbol><symbol id="faq_arrow" viewBox="0 0 19 11"><path d="M18.7 0.3C18.3 -0.1 17.7 -0.1 17.3 0.3L9.5 8.1L1.7 0.3C1.3 -0.1 0.7 -0.1 0.3 0.3C-0.1 0.7 -0.1 1.3 0.3 1.7L8.8 10.2C9.2 10.6 9.8 10.6 10.2 10.2L18.7 1.7C19.1 1.3 19.1 0.7 18.7 0.3Z" fill="#A6ABBD"/>
</symbol><symbol id="faq-1" viewBox="0 0 40 40"><rect width="40" height="40" rx="20" fill="#E7EBF0"/>
<rect x="0.5" y="0.5" width="39" height="39" rx="19.5" stroke="url(#paint0_linear_1_468)" stroke-opacity="0.3" style="mix-blend-mode:hard-light"/>
<path d="M10.6697 29.0544C7.92893 26.3137 7.92893 21.87 10.6697 19.1293L19.135 10.664C21.8726 7.92636 26.3112 7.92636 29.0488 10.664C32.0213 13.6365 31.7263 18.5552 28.5307 21.3414C27.3323 22.3863 26.1465 23.4622 25.1545 24.4435C23.9492 25.6357 22.6163 27.0973 21.3497 28.5476C18.5621 31.7395 13.6421 32.0268 10.6697 29.0544Z" fill="white" stroke="#2E3A59"/>
<path d="M9.10563 27.3985C6.97393 25.2668 6.77622 21.8904 8.7049 19.599C10.4282 17.5517 12.4882 15.2006 14.2516 13.4564C15.8034 11.9215 17.8556 10.1343 19.6912 8.59596C21.9825 6.67557 25.3533 6.87667 27.4813 9.00463C30.0054 11.5288 29.7602 15.7109 27.0264 18.0504C25.5298 19.3312 23.9829 20.7092 22.7407 21.9379C21.2827 23.38 19.6368 25.2176 18.1465 26.9539C15.8059 29.6809 11.6273 29.9202 9.10563 27.3985Z" fill="white" stroke="#2E3A59"/>
<rect x="17.4355" y="14.5151" width="6" height="6" rx="3" transform="rotate(-45 17.4355 14.5151)" fill="#FFD058" stroke="#2E3A59"/>
<rect x="11" y="23" width="2" height="2" rx="1" transform="rotate(-45 11 23)" fill="#00C368"/>
<defs>
<linearGradient id="paint0_linear_1_468" x1="41.5385" y1="40.7692" x2="-2.15385" y2="-1.23077" gradientUnits="userSpaceOnUse">
<stop stop-color="white"/>
<stop offset="1" stop-color="white" stop-opacity="0"/>
</linearGradient>
</defs>
</symbol><symbol id="faq-2" viewBox="0 0 40 40"><rect width="40" height="40" rx="20" fill="#E7EBF0"/>
<rect x="0.5" y="0.5" width="39" height="39" rx="19.5" stroke="url(#paint0_linear_1_448)" stroke-opacity="0.3" style="mix-blend-mode:hard-light"/>
<path d="M12.5 18C12.5 13.8579 15.8579 10.5 20 10.5C24.1421 10.5 27.5 13.8579 27.5 18V25.5H12.5V18Z" fill="white" stroke="#2E3A59"/>
<rect x="14" y="26" width="2" height="5" fill="#2E3A59"/>
<rect x="24" y="26" width="2" height="5" fill="#2E3A59"/>
<rect x="13" y="23" width="14" height="2" fill="#A6ABBD"/>
<defs>
<linearGradient id="paint0_linear_1_448" x1="41.5385" y1="40.7692" x2="-2.15385" y2="-1.23077" gradientUnits="userSpaceOnUse">
<stop stop-color="white"/>
<stop offset="1" stop-color="white" stop-opacity="0"/>
</linearGradient>
</defs>
</symbol><symbol id="faq-3" viewBox="0 0 40 40"><rect width="40" height="40" rx="20" fill="#E7EBF0"/>
<rect x="0.5" y="0.5" width="39" height="39" rx="19.5" stroke="url(#paint0_linear_1_455)" stroke-opacity="0.3" style="mix-blend-mode:hard-light"/>
<rect x="8.5" y="4.5" width="23" height="23" rx="11.5" fill="white" stroke="#2E3A59"/>
<rect x="16.5" y="32.5" width="7" height="4" rx="1.5" fill="#FFD058" stroke="#2E3A59"/>
<path d="M14.5 26.5H25.5V33C25.5 33.8284 24.8284 34.5 24 34.5H16C15.1716 34.5 14.5 33.8284 14.5 33V26.5Z" fill="#A6ABBD" stroke="#2E3A59"/>
<rect x="15" y="28" width="1" height="1" fill="#2E3A59"/>
<rect x="24" y="28" width="1" height="1" fill="#2E3A59"/>
<rect x="15" y="30" width="1" height="1" fill="#2E3A59"/>
<rect x="24" y="30" width="1" height="1" fill="#2E3A59"/>
<rect x="15" y="32" width="1" height="1" fill="#2E3A59"/>
<rect x="24" y="32" width="1" height="1" fill="#2E3A59"/>
<rect x="5.99017" y="33.8027" width="39.3129" height="1" transform="rotate(-45 5.99017 33.8027)" fill="#2E3A59"/>
<defs>
<linearGradient id="paint0_linear_1_455" x1="41.5385" y1="40.7692" x2="-2.15385" y2="-1.23077" gradientUnits="userSpaceOnUse">
<stop stop-color="white"/>
<stop offset="1" stop-color="white" stop-opacity="0"/>
</linearGradient>
</defs>
</symbol><symbol id="faq-4" viewBox="0 0 40 40"><rect width="40" height="40" rx="20" fill="#E7EBF0"/>
<rect x="0.5" y="0.5" width="39" height="39" rx="19.5" stroke="url(#paint0_linear_1_431)" stroke-opacity="0.3" style="mix-blend-mode:hard-light"/>
<rect x="15" y="15" width="1" height="10" fill="#2E3A59"/>
<rect x="15" y="15" width="1" height="10" fill="#2E3A59"/>
<rect x="15" y="15" width="1" height="10" fill="#2E3A59"/>
<rect x="20.5671" y="9.35779" width="1" height="13.3677" transform="rotate(30 20.5671 9.35779)" fill="#2E3A59"/>
<rect x="20.5671" y="9.35779" width="1" height="13.3677" transform="rotate(30 20.5671 9.35779)" fill="#2E3A59"/>
<rect x="20.5671" y="9.35779" width="1" height="13.3677" transform="rotate(30 20.5671 9.35779)" fill="#2E3A59"/>
<rect x="25.1424" y="13.567" width="1" height="12.077" transform="rotate(60 25.1424 13.567)" fill="#2E3A59"/>
<rect x="25.1424" y="13.567" width="1" height="12.077" transform="rotate(60 25.1424 13.567)" fill="#2E3A59"/>
<rect x="25.1424" y="13.567" width="1" height="12.077" transform="rotate(60 25.1424 13.567)" fill="#2E3A59"/>
<rect x="25.6423" y="25.5671" width="1" height="13.1329" transform="rotate(120 25.6423 25.5671)" fill="#2E3A59"/>
<rect x="25.6423" y="25.5671" width="1" height="13.1329" transform="rotate(120 25.6423 25.5671)" fill="#2E3A59"/>
<rect x="25.6423" y="25.5671" width="1" height="13.1329" transform="rotate(120 25.6423 25.5671)" fill="#2E3A59"/>
<rect x="21.433" y="30.1423" width="1" height="15.5875" transform="rotate(150 21.433 30.1423)" fill="#2E3A59"/>
<rect x="21.433" y="30.1423" width="1" height="15.5875" transform="rotate(150 21.433 30.1423)" fill="#2E3A59"/>
<rect x="21.433" y="30.1423" width="1" height="15.5875" transform="rotate(150 21.433 30.1423)" fill="#2E3A59"/>
<rect x="6" y="13" width="14" height="14" rx="7" fill="#E7EBF0"/>
<rect x="12" y="8" width="1" height="24" fill="#2E3A59"/>
<path d="M27 20H20" stroke="#2E3A59"/>
<path d="M12.5 14.5224C15.3032 14.775 17.5 17.131 17.5 20C17.5 22.869 15.3032 25.225 12.5 25.4776V14.5224Z" fill="white" stroke="#2E3A59"/>
<rect x="20.5" y="6.5" width="3" height="3" rx="1.5" fill="#FFD058" stroke="#2E3A59"/>
<rect x="25.5" y="11.5" width="3" height="3" rx="1.5" fill="#FFD058" stroke="#2E3A59"/>
<rect x="26.5" y="18.5" width="3" height="3" rx="1.5" fill="#FFD058" stroke="#2E3A59"/>
<rect x="25.5" y="25.5" width="3" height="3" rx="1.5" fill="#FFD058" stroke="#2E3A59"/>
<rect x="20.5" y="30.5" width="3" height="3" rx="1.5" fill="#FFD058" stroke="#2E3A59"/>
<defs>
<linearGradient id="paint0_linear_1_431" x1="41.5385" y1="40.7692" x2="-2.15385" y2="-1.23077" gradientUnits="userSpaceOnUse">
<stop stop-color="white"/>
<stop offset="1" stop-color="white" stop-opacity="0"/>
</linearGradient>
</defs>
</symbol><symbol id="faq-5" viewBox="0 0 40 40"><rect width="40" height="40" rx="20" fill="#E7EBF0"/>
<rect x="0.5" y="0.5" width="39" height="39" rx="19.5" stroke="url(#paint0_linear_1_424)" stroke-opacity="1" style="mix-blend-mode:hard-light"/>
<rect x="8.5" y="8.5" width="23" height="23" rx="11.5" stroke="#2E3A59" fill="#E7EBF0"/>
<rect x="12.5" y="12.5" width="15" height="15" rx="7.5" stroke="#2E3A59" fill="#E7EBF0"/>
<rect x="16" y="5" width="8" height="12" fill="#E7EBF0"/>
<rect x="18.5" y="5.5" width="3" height="11" rx="1.5" fill="#FFD058" stroke="#2E3A59"/>
<defs>
<linearGradient id="paint0_linear_1_424" x1="41.5385" y1="40.7692" x2="-2.15385" y2="-1.23077" gradientUnits="userSpaceOnUse">
<stop stop-color="white"/>
<stop offset="1" stop-color="white" stop-opacity="0"/>
</linearGradient>
</defs>
</symbol>
<symbol id="quotes" viewBox="0 0 40 40"><path d="M20.5196 9.45753C20.5196 4.23428 24.8681 0 30.2333 0C35.5984 0 39.4925 4.08837 39.9469 9.29309C40.6406 17.235 34.4438 23.8845 26.9205 26C29.4849 24.4904 31.2738 21.8648 31.5721 18.8113C31.1329 18.872 30.6886 18.9151 30.2333 18.9151C24.8681 18.9151 20.5196 14.6813 20.5196 9.45753Z" />
<path d="M-7.62939e-06 9.45753C-7.62939e-06 4.23428 4.34846 0 9.71411 0C15.0788 0 18.9734 4.08837 19.4282 9.29309C20.1219 17.235 13.9251 23.8845 6.40137 26C8.96573 24.4904 10.7541 21.8648 11.0529 18.8113C10.6138 18.872 10.1689 18.9151 9.71411 18.9151C4.34846 18.9151 -7.62939e-06 14.6813 -7.62939e-06 9.45753Z" />
</symbol>


</svg>